# xmcd
#
# Track frame offsets:
#	150
#	12921
#	27043
#	45490
#	58099
#	72135
#	87420
#	102247
#	113921
#	128395
#
# Disc length: 1852 seconds
#
# Revision: 1
# Processed by: cddbd v1.4PL0 Copyright (c) Steve Scherf et al.
# Submitted via: audiograbber 1.81.03
#
DISCID=76073a0a
DTITLE=Jason Parman - Hot Diggety Dog
DYEAR=1998
DGENRE=Country
TTITLE0=All Stirred Up
TTITLE1=Everything A Cowboy Should Be
TTITLE2=Heart To Heart
TTITLE3=Tis The Season
TTITLE4=I Want To Believe
TTITLE5=I Still Love You
TTITLE6=Nothing Between
TTITLE7=Hot Diggety Dog
TTITLE8=Wild Blue Yonder
TTITLE9=Ride, Ride, Ride
EXTD=
EXTT0=
EXTT1=
EXTT2=
EXTT3=
EXTT4=
EXTT5=
EXTT6=
EXTT7=
EXTT8=
EXTT9=
PLAYORDER=
